<?xml version="1.0" encoding="UTF-8"?>
<svg id="Layer_1" xmlns="http://www.w3.org/2000/svg" version="1.1" viewBox="0 0 1920 1920">
  <!-- Generator: Adobe Illustrator 29.8.6, SVG Export Plug-In . SVG Version: 2.1.1 Build 1)  -->
  <defs>
    <style>
      .st0 {
        fill: #e07303;
      }

      .st1 {
        fill: #e17304;
      }

      .st2 {
        fill: #fab256;
      }

      .st3 {
        fill: #fdb456;
      }

      .st4 {
        fill: #a6a4a3;
      }

      .st5 {
        fill: #df7304;
      }

      .st6 {
        fill: #c1bebd;
      }

      .st7 {
        fill: #030302;
      }

      .st8 {
        fill: #080808;
      }

      .st9 {
        fill: #020202;
      }

      .st10 {
        fill: #e17505;
      }

      .st11 {
        fill: #898888;
      }

      .st12 {
        fill: #fdb557;
      }

      .st13 {
        fill: #e27403;
      }

      .st14 {
        fill: #030303;
      }

      .st15 {
        fill: #c6c4c3;
      }

      .st16 {
        fill: #fdb556;
      }

      .st17 {
        fill: #e17403;
      }

      .st18 {
        fill: #030202;
      }

      .st19 {
        fill: #fcb252;
      }
    </style>
  </defs>
  <g>
    <g>
      <path class="st7" d="M1251.83,534.91v33.74h26.99l-1.7,156.89c4.79.8,20.52-1.82,22.89,1.57,3.13,8.42-2.01,42.44,1.47,47.45,2.39,3.43,19.58.74,24.57,1.58v26.99h186.4c.18,0,2.53,2.35,2.53,2.53v24.46h58.2c4.32,0,1.97,21.19,2.53,25.3h23.62c-2.61,26.28,2.33,22.33,25.3,21.93v27.83c0,4.24,19.67,2.03,23.62,2.52l-.02,18.57h21.95s-1.7-148.45-1.7-148.45h-26.15c-1.85,0-2.42-4.12-2.62-5.82-1.8-15.37-1.8-59.03,0-74.39.2-1.7.77-5.82,2.62-5.82h26.15v-32.05h114.71v32.05h26.15c.18,0,2.53,2.35,2.53,2.53v54.82h30.36l1.69,157.72c-.52,8.41-23.38,2.16-25.31,4.21l-1.68,75.92h-25.3v29.52c0,.18-2.35,2.53-2.53,2.53h-27.83v38.8h23.62c.42,3.8-1.6,21.93,2.53,21.93h29.52v118.08h-26.99c-.3,9.21.97,20.77-2.53,28.68h-26.15v21.93h-188.93v26.99h-145.91c-4.13,0-2.11,18.13-2.53,21.93h-230.26c-5.48,0,2.87-19.06-2.48-22.88-1.31-.94-26.92,1.77-32.1-.74-.49,3.96,1.72,23.62-2.52,23.62h-37.95c-.41,2.48.58,12.96,0,13.5-.53.5-12.02,1.44-14.4,1.66-2.64.25-6.12-3.15-7.34,1.09-1.74,6.02,3.82,19.45-.2,27.6h-25.3v23.62h-129.89c-.33,3.6,1.48,20.24-2.53,20.24h-397.26v-26.15c0-.18-2.35-2.53-2.53-2.53H234.65v-26.15c0-.18-2.35-2.53-2.53-2.53h-26.15v-43.01c0-4.32-21.19-1.97-25.3-2.53v-79.28h-25.3v-79.28h-23.62v-75.91h-23.62l-1.69-80.97h-27.83c-.18,0-2.53-2.35-2.53-2.53v-77.6c0-.18,2.35-2.53,2.53-2.53h29.52v-31.21c0-.18,2.35-2.53,2.53-2.53h439.43v-78.44c0-.18,2.35-2.53,2.53-2.53h26.15v-48.92h26.15c.18,0,2.53-2.35,2.53-2.53v-149.29h26.99v-32.05h102.9v28.68h25.3v20.25c4.38.69,17.22-1.71,19.51,1.57,2.52,3.62-1.7,23.72,3.27,23.72h53.14c-1.14-5.69,1.31-10.91,1.77-16.13.42-4.77-4.59-9.06,4.05-9.26l189.01.08c7.97,1.47,2.79,19.23,4.21,25.31h43.86c.56-4.12-1.79-25.3,2.53-25.3h29.52v-20.24h30.36v-30.36h107.96Z"/>
      <path class="st12" d="M1560.52,867.22c3.82,3.84.73,16.1,1.69,21.93h26.99v21.93h23.62v28.68c2.85.47,16.23-.66,16.88,0,1.24,1.24-1.77,19.84.77,23.69,2.72,4.12,15.49,2.73,16.1,3.3,1.44,1.36-2.29,28.63,1.57,31.32,3.3,2.3,15.65-.12,20.36.73,1.1,5.32-1.48,39.1-.02,40.5.46.44,11.82-1.2,11.82,2.52v27.83h69.16v21.93h23.62v92.78h-26.99c-1.84,4.11,4.43,25.3-.84,25.3h-181.34v24.46c0,.18-2.35,2.53-2.53,2.53h-145.91v20.24h-204.11c.53-3.2-.72-19.53,0-20.25.59-.59,11.01.43,13.5,0v-26.15c0-.18-2.35-2.53-2.53-2.53h-31.21v26.15c0,5.95-33.38-1.67-38.71,2.61l-.09,20.16h-48.92c-.76,0,.76,15.18,0,15.18h-146.76v-35.42h-30.36v35.42h-32.05c-2.52-6.69,7.27-28.93-5.59-25.06-5.49,1.65-3.47,13.43-14.64,9.87-2.24-14.51-1.74-29.19-1.71-43.87h21.94s0-26.14,0-26.14c0-4.75,20.81-1.39,21.94-2.52.65-.65-.48-14.02,0-16.88h35.42v-21.93h60.73v-20.24h49.76c.18,0,2.53-2.35,2.53-2.53v-29.52h-52.29c-.33,3.6,1.48,20.24-2.53,20.24h-58.2v20.24h-36.27c-4.13,0-2.11,18.14-2.52,21.94-5.62,1.07-23.45-1.82-27.11.73-3.34,2.33-.82,16.61-1.57,21.2l-20.26-.02c.22,3.85-.63,29.28-1.67,30.38-.56.59-9.9-.99-13.52.81-4.69,2.33-2.84,9.3-3.36,9.3h-102.9v-59.04h-20.24v-35.42c13.76-1.37,27.02,3.08,40.48,0v-24.46c0-4.7-8.83-5.55-12.68-5.88-14.9-1.28-31.29.89-46.36-.03v-23.62c0-.24-4.24.57-4.86-.11-1.2-1.33.59-10.97-.19-11.7-.62-.58-6.16.6-6.78.02-1.72-1.63,2.34-42.95-.72-47.35-2.32-3.34-16.6-.83-21.19-1.58v-48.92c0-.88-15.31,2.31-16.74-2.74-.61-2.16,3.56-15.62,1.58-17.51-.62-.59-6.16.6-6.78.02-1.84-1.74-.13-44.18-1.67-50.62h-28.68v-36.27c0-.18-2.35-2.53-2.53-2.53h-26.15v-74.22h28.68v-49.76c0-.18,2.35-2.53,2.53-2.53h26.15v-148.44h74.22v27.83c0,4.13,18.14,2.11,21.94,2.52v18.56s26.98,0,26.98,0v23.62c17.96-.17,36.02.22,53.98,0,1.33.35,3.32.95,3.37,1.97.4,7.37.71,56.44-1.31,58.83-1.79,2.11-21.85,3.75-22.31-1.76,1.31,0,3.33.32,3.37,1.14.98,17.23,1.13,40.83,0,57.95,1.08,5.54-.04,8.9-3.37,10.08,1.34-1.27,2.85-2.66,4.75-2.97,7.31-1.21,30.04-2.19,37.74-1.85l4.74,3.14c-1.31,0-3.32-.32-3.37-1.15-.51-7.78-1.38-54.28,0-58.42l3.37-2c-6.34-7.14,20.06-8.9,21.93-2.53-1.32-.15-3.31-.58-3.37-1.51-.42-6.05-.59-47.86,1.12-49.67.54-.57,1.36-.88,2.25-1.12l1.83-3.37c5.76.34,11.33.12,16.73-.67v-29.01s3.37-2.37,3.37-2.37c20.78-.05,41.64-.06,62.41,0,8.09,1.27,7.22,26.65-.15,28.68h-15.12s-1.76,55.24-1.76,55.24c-3.22,5.22-22.09,6.2-25.14.42,1.31,0,3.33.32,3.37,1.14,1.02,20.37,1.01,45.66,0,66.04l-3.37,1.98,4.93-3.47,38.86.51,5.12,2.96c-1.3,0-3.29-.29-3.37-1.14-1.46-15.11-1.63-47.72,0-62.67l3.37-1.98c1.56-5.38,19.77-5.21,21.93,0-1.32-.15-3.29-.57-3.37-1.51-.77-8.75-1.55-42.8,0-50.02l3.37-2.45,1.84-3.37,15.41-.23c-.88-9.73-.71-19.43.51-29.08l4.16-1.05c5.26.04,20.22-1.11,23.62,0,.53,8.44,1.1,16.87,1.69,25.3h59.05c.8-4.72-1.82-20.48,1.56-22.89,2.71-1.93,25.53,3.1,32.77.73,5.15-1.69,1.92-15.43,2.76-20.02h21.94s0-32.04,0-32.04h82.66v153.5c3.29,1.29,17.84-1.49,18.6-.95,3.85,2.75.32,21.59,1.63,22.89.54.53,8.03-.37,10.13,0v28.68h25.3v161.94h-21.93v25.3h-18.56c-.86,5.1,1.93,22.01-1.63,24.57-1.37.98-28.42-3.84-33.39,1.13-2.63,2.63-2,15.69-2.08,19.85h-48.92c-.8,4.37-4.19,30.36.84,30.36h49.76v-21.93h41.33c4.33,0,1.97-21.2,2.52-25.31h21.94s0-25.29,0-25.29h20.24v-28.68h24.46c1.4,0,2.98-4.09,2.62-5.82l-.08-93.72c1.12-.08,2.25.07,3.37.01,8.32.3,16.19.86,23.62,1.69l3.37,1.53v42.11c6.55-.34,12.85.21,18.87,1.64,4.17,5.07,2.19,43.13,1.14,51.91l-3.14,4.02c1.33-5.57,21.29-5.13,23.62,0l3.37,1.55v102.71l-3.37,2.01c2.78-5.53,23.72-5.29,26.99,0-1.32.17-2.48-.17-3.31-1.25-7.24-9.42,15.06-9.84,20.18-9.24.35-30.46.14-60.69-.63-90.68-7.12.76-25.4-.38-17.93-9.32-1.31-.16-3.25-.55-3.37-1.52-1.08-8.49-1.21-37.49,0-45.79l3.37-2.45-1.83,3.37c-26.3,2.36-26.4-2.36-21.72-26.51-7.81-2.25-7.15-20.62-1.75-24.1,22.55-1.4,45.23-1.12,67.82-.59,1.65.04,2.55,2.93,2.8,5.02l.86,39.45,11.37-.05c4.6.24,9.9.91,6.55,5.93,1.32.15,3.3.58,3.37,1.51.42,5.56.54,43.7-1.12,45.45-.54.57-1.36.88-2.25,1.12,1.61-5.41,19.85-5.18,21.93,0,1.33.15,3.33.62,3.37,1.56.95,19.87,1.89,50.06,0,69.29.98,4.67-.14,7.48-3.37,8.43.15-1.32.58-3.3,1.53-3.37,4.83-.4,41.33-1.01,43.24,0,1.32.7,2.02,2.01,2.47,3.37l-2.25-.13c-1.33-24.71-1.71-49.88-1.12-75.49l3.37-1.98c-1.93,6.03-26.39,5.2-21.93-2.53-1.32-.15-3.31-.59-3.37-1.52-.42-5.75-.55-45.35,1.12-47.12.54-.57,1.35-.89,2.25-1.13.18,5.55-20.14,3.77-22.02,2.05-2.07-1.89-2.33-22.57-1.49-23.41,2.41-2.42,43.95-2.04,50.5-.57Z"/>
      <path class="st15" d="M610.82,940.6c1.92,6.2,20.74-.34,21.92.84l1.69,77.61h21.94s0,38.79,0,38.79c0,.36,6.75-.03,6.75,2.53v39.64h20.25s1.68,59.04,1.68,59.04h23.62v77.6h25.3l1.68,69.17c3.8.41,21.94-1.61,21.94,2.52v35.42c0,.18-2.35,2.53-2.53,2.53h-194.83v-28.68H248.14v-40.48h-27.83c-.18,0-2.53-2.35-2.53-2.53v-76.75h-23.62v-79.28h-25.3v-79.28c-4.12-.56-25.3,1.79-25.3-2.53v-76.75h-24.46c-.18,0-2.53-2.35-2.53-2.53v-68.32h491.72c.18,0,2.53,2.35,2.53,2.53,0,9.54-1.91,42.74,0,48.92Z"/>
      <path class="st0" d="M1329.42,840.23c58.77-2.86,119.81,2.14,178.81,0v25.3c15.29,1.34,33.32-1.77,48.25-.09,2.35.26,2.4.12,4.04,1.78h-47.24s0,21.94,0,21.94h20.25s0,49.75,0,49.75c0,4.13,18.13,2.11,21.93,2.53v77.6h-47.23v-79.28h-21.93v-48.08c0-4.14-18.13-2.09-21.93-2.54,2.08-15.5-1.2-31.35.01-47.23-22.47-.02-45.01.05-67.48,0-14.67,4.17-29.2,4.21-43.86,0-7.45-.02-17.26,1.44-23.62-1.69Z"/>
      <path class="st10" d="M894.21,622.63v35.43s-21.93,0-21.93,0v52.29c-3.8.42-21.93-1.6-21.93,2.53v61.57c-15.92.61-31.3,3.51-47.23,1.69v-69.16h20.25s0-59.04,0-59.04c6.73-.08,13.52.06,20.24,0v-25.3c16.84-.03,33.76.04,50.61,0Z"/>
      <path class="st10" d="M1007.23,622.63c-3.93,4.77-.18,32.25-1.68,33.75h-20.25s0,53.97,0,53.97h-21.93v65.79c-16.43,1.75-32.36-.59-48.92,0v-69.16h21.94s1.67-59.05,1.67-59.05l20.26.02c-.7-8.26,1.73-17.55-1.7-25.31,16.84.04,33.77-.14,50.61,0Z"/>
      <path class="st19" d="M1771.38,698.54c1.55,16.92,1.55,33.79,0,50.61-.16,1.31-.56,3.28-1.49,3.37-8.02.78-25.15.76-33.22,0l-2.4-3.37c6.08-.11,3.34,21.98,1.32,22.48-10.21,2.52-22.04,1.84-31.69-2.24-8.41-.07-16.89.05-25.3,0v-72.53c12.22,1.71,88.12-2.94,92.78,1.69Z"/>
      <path class="st13" d="M1705.59,850.35l2.19-3.2c9.05-.59,50.32-1.98,55.07,2.64-.18,9.73,17.03,11.83,13.51.58,3.33-5.41,23.84-5.42,27.08-.03v16.87c.02,5.04,1.93,30.86.98,32.16-2.47,3.4-18.15.77-22.92,1.57-1.94,1.94,1.15,46.73.06,54.94-.23,1.72-.11,1.81-1.74,2.42-4.96-17.64-5.6-39.9,0-57.35-.15,1.32-.59,3.3-1.53,3.37-4.85.39-41.46,1.22-43.24,0-1.24-.85-2.11-1.87-2.47-3.37-3.39.04-4.46-2.89-3.21-8.79-7.63-.27-15.27.08-22.81,1.32l-2.66-2.66c.25-8.63,1.51-17.69,1.69-26.99v-13.49Z"/>
      <path class="st3" d="M1703.9,890.84c3.63-2.02,27.67-2.72,28.69-1.7.56.57-.4,9.51,0,11.82h47.23c-.33,19.08.45,38.28,0,57.35l-1.31,3.96c-4.21,2.35-53.69,1.61-55.88-.15-2.05-5.8-2.67-12.16-1.84-19.08l-12.99.41c-7.29-.24-13.15-11.2-5.58-13.82,1.2-12.95,1.3-25.43,1.69-38.8Z"/>
      <path class="st17" d="M1771.38,698.54c1.64,1.63,1.54,1.69,1.78,4.04,1.54,15.12-1.33,32.83-.09,48.25h29.52c.84,0,2.78,2.78,2.58,4.2l-1.74,112.19c-.02-5.61.01-11.26,0-16.87-4.21-20.25-4.16-40.47,0-60.73-.16,1.31-.56,3.27-1.51,3.37-10.14,1.12-40.26,1.4-50.02,0l-2.45-3.37c6.14.83,4.38,20.2-2.53,15.18-.36,1.31-.9,3.25-1.95,3.37-4.29.5-34.1.78-36.95,0l-2.43-3.37c5.04,14.2,5.31,31.42,0,45.55-.06,4.49.09,9.01,0,13.49l-1.69-94.46c10.1.09,20.27-.07,30.37,0v-20.25s37.1,0,37.1,0v-50.61Z"/>
      <path class="st6" d="M852.04,1305.81c14.56.77,29.09,1.17,43.58,1.19l-1.41,2.19c.27,3.03-1.26,3.36-4.59.98-7.06,1.51-13.4,1.19-19.02-.98,7.56,1.62,15.47,2.18,23.74,1.69,4.96,8.69,6.53,18.79,6.04,28.66h28.54s2.4,3.39,2.4,3.39c-.33.91,1.02,3.17-1.01,3.46l-140.69-.08v-40.48c20.78-.06,41.64.08,62.41,0Z"/>
      <path class="st4" d="M852.04,1305.81c68.57-.26,137.23.2,205.81,0v20.25h-124.84c.26,6.26.47,10.96-1.69,16.87l-37.11-.02c7.01-4.4-.43-30.87-4.37-31.74-3.62-.8-16.02,5.56-19.24-1.98h23.62c.38-2.97-3.81-1.6-5.89-1.69-11.79-.49-25.13,1.78-36.28-1.69Z"/>
      <path class="st5" d="M1702.22,929.64c-1.47,15.96,10.72,8.66,21.94,10.11l-.02,20.26c15.17-2.08,41.99,3.45,55.68-1.7-.11,4.48.08,9.01,0,13.49h-28.68v37.12c-2.23.11-4.51-.14-6.75,0-8.1-5.7-12.71-8.65-24.12-6.87-6.35-2.29-6.85-20.56-1.18-23.49-.36,1.31-.89,3.22-1.95,3.37-4.1.58-31.06.76-34.42,0l-2.43-3.37c5.7.48,4.23,16,0,18.56-3.93-2.84-.37-17.26-1.68-18.56-.72-.72-12.8.73-13.51.02-.66-.66-.66-17.92,0-18.57.71-.72,12.8.73,13.51.02,1.08-1.08.94-26.36,1.67-30.38h21.94Z"/>
      <path class="st11" d="M845.29,1277.13c.63.63,12.53-.46,15.17,0,1,.95-1.47,5.05-2.52,5.05h-88.56v-34.58c0-1.85,4.12-2.42,5.82-2.62,13.43-1.58,27.31,1.31,40.5,1.84,8.84.35,17.86-1.08,26.15-1.06,1.41,0,3.44.62,3.44,1.84,0,4.31-1.04,28.48,0,29.52Z"/>
      <path class="st2" d="M1680.29,997.11c-1.31-4,.94-13.66,0-18.56h38.8v20.25c10.5-.11,21.96-2.65,25.3,10.11-7.24.44-14.67-.32-21.93,0v28.68h-20.24v-38.8c-4.33-.84-20.75,1.91-21.93-1.69Z"/>
      <path class="st10" d="M1032.53,647.93c-3.62-1.18-.82-20.58-1.69-25.3,3.62,1.18.82,20.58,1.69,25.3Z"/>
      <path class="st1" d="M1396.89,841.92c.82,5.77-1.13,14.04-.11,19.32.4,2.07,4.89-.15,5.26,1.8.77,4.06-4.13,23.78-1.78,26.13h21.94s0,49.75,0,49.75c0,9.7,21.53,3.99,21.96,6.88l-.02,96.87c-3.21.54-19.56-.76-20.26-.02-.47.49.3,5.19.01,6.76h-26.99v-106.27h-23.62c-1.49-18.21,3.41-36-.02-53.96h-20.24s0-47.25,0-47.25c14.59.04,29.26-.03,43.86,0Z"/>
      <path class="st7" d="M895.9,939.76v25.3c0,.88-15.33-2.31-16.73,2.74-1.62,5.84,4.75,9.67,4.87,10.26.53,2.51-.98,12.31,2.58,12.31h39.64v-20.25c5.14,1.05,23.31-2.6,25.07,2.77.74,2.27.74,20.87,0,23.14-1.83,5.58-16.92,1.34-18.33,2.76-.71.72.54,17.05,0,20.25h-46.39c-4.8,0-.86-19.88-3.5-20.27l-37.83.02c-.33,3.6,1.5,20.25-2.52,20.25h-43.86c-5.79,0,.6-18.78-.84-20.24h-18.56v-28.68c20.95.12,28.34-5.34,25.29,20.25,9.69-1.78,29.47,2.48,37.73-.24,4.37-1.44,1.95-7.24,3.03-10.52.78-2.35,4.39-2.15,4.83-3.91.75-2.93-.49-7.38-.03-10.64-23.41,4.03-20.32-8.12-16.99-26.26l62.53.97Z"/>
      <path class="st18" d="M1044.34,870.6v20.25s20.24,0,20.24,0v46.39c0,4.63-19.23,1.5-20.25,2.52-.68.68.5,15.54,0,18.56h-37.11v-18.56s-20.24,0-20.24,0v-48.92h20.25s0-20.24,0-20.24h37.11Z"/>
      <path class="st9" d="M740.71,870.6c-1.47,20.93-.71,21.72,20.24,20.24v46.39c0,4.63-19.23,1.5-20.25,2.52-.68.68.5,15.54,0,18.56h-35.42v-18.56s-20.24,0-20.24,0v-48.92h20.25s0-20.24,0-20.24h35.42Z"/>
      <path class="st14" d="M438.76,1100.01c.5,3.02-.68,17.89,0,18.56.77.77,16.12-.78,16.89-.02.72.72-.54,17.07-.02,20.26h20.25s0,38.79,0,38.79c-2.85.47-16.23-.66-16.88,0-.68.68.5,15.54,0,18.56h-25.3c-.47-2.85.66-16.23,0-16.88-.74-.74-19.57-.47-20.91-.1-.97.27-5.45,14.64-7.72,16.19-1.54,1.05-19.59,1.51-20.31.8-3.61-3.59,9.76-24.42-18.55-18.56v-38.8h18.56c-1.49-20.95-.69-21.72,20.24-20.23v-18.56s33.73,0,33.73,0Z"/>
      <path class="st14" d="M359.48,1079.77c4.48-.11,9.02.09,13.5,0v-40.49s33.73,0,33.73,0v37.95c0,.18-2.35,2.53-2.53,2.53h-29.52v37.95c0,.18-2.35,2.53-2.53,2.53h-32.05c-.37,0-1.9-1.61-2.04-2.48l-.5-38.01c3.36-.1,6.77.14,10.13,0l2.45,2.91c-4.43,6.98,19.9,34.22,20.05,17.9-7.05-4.03-16.9-12.64-10.7-20.82Z"/>
      <path class="st8" d="M440.45,1039.28c7.21,2.48-.34,8.05-5.41,9.7l.49,7.68c7.64,1.27,8.31,7.3,2.02,18.08,9.54-1.2,18.37-.09,26.51,3.34,2.57.02,5.09,1.32,7.55,1.34,8.35.06,18.9-2.81,27.88-1.34v42.17h-32.89c-.18,0-2.53-2.35-2.53-2.53v-37.95h-31.21c-4.78,0-1.62-35.2-2.54-40.49,3.36-.09,6.77.13,10.13,0Z"/>
      <path class="st14" d="M440.45,1039.28c7.84-.28,15.78.2,23.62,0v38.81c-10.67-.1-21.4.08-32.06,0-1.57-5,2.27-4.5,3.17-6.44,9.12-19.44-1.9-8.95-3.16-10.43.64-4.21-.96-10.28-.09-14.06.53-2.32,9.32-2.01,8.51-7.87Z"/>
      <path class="st9" d="M359.48,1079.77c.96,3.77,1.89,8.65,4.26,11.77,5.14,6.77,12.36,2,9.25,16.91-14.85,2-11.6-1.03-17.82-8.34-6.05-7.12-12.56-8.91-7.49-20.34,3.92-.15,7.88.1,11.81,0Z"/>
      <path class="st16" d="M1705.59,850.35c.2-15.15-.15-30.39,0-45.55h41.33c4.27,0,1.74-15.18,2.53-15.18h53.98c.03,20.22-.05,40.51,0,60.73-3.66.63-22.81-.87-23.62,0-2,2.13,5.58,11.64-11.02,10.23-11.08-.94-5.14-4.03-8.33-8.58-2.7-3.87-46.71-.48-54.87-1.64Z"/>
      <path class="st9" d="M357.78,1118.56l-10.1-.83c3.64-5.21,9.76-6.43,10.1.83Z"/>
    </g>
    <rect class="st12" x="823.83" y="1109.05" width="425.94" height="109.04"/>
    <rect class="st12" x="922.75" y="1148.26" width="425.94" height="109.04"/>
    <rect class="st11" x="769.38" y="1244.53" width="338.41" height="37.66"/>
    <rect class="st7" x="815.04" y="1218.09" width="359.09" height="26.44"/>
  </g>
  <g>
    <path class="st7" d="M1189.68,1240.23l.53.24h0c.45-.17,3.67,1.49,6.78,3.04l5.54,2.49,10.7-23.85c.07-.16-1.11-3.27-1.27-3.34l-28.47-12.78-10.71,23.85c-2.44,5.43-29.77-15.19-36.38-13.47l-8.34,18.35-44.63-20.03c-.69-.31-5.52,14.16-6.22,13.85l-133.89-60.1,14.51-32.32-27.7-12.43-14.51,32.32-29.24-13.12c.44-7.14,18.47-23.42,5.16-25.15-5.68-.74-8.67,10.83-17.4,3.01,3.9-14.16,10.36-27.35,16.41-40.72l20.01,8.99,10.71-23.85c1.95-4.33,19.56,7.25,21.05,6.68.86-.33,5.3-12.99,6.9-15.4l32.32,14.51,8.98-20.01,55.4,24.87,8.29-18.47,45.4,20.38c.16.07,3.27-1.11,3.34-1.27l12.09-26.93-47.71-21.41c-1.78,3.15-6.94,19.07-10.6,17.43l-53.09-23.83-8.29,18.47-33.09-14.85c-3.77-1.69-9.35,15.69-11.28,18.98-5.56-1.33-20.65-11.26-25.03-10.44-4.01.76-7.55,14.81-10.12,18.7l-18.48-8.31c-1.38,3.6-12.56,26.45-13.97,27.04-.75.31-8.63-4.96-12.67-4.79-.29.01-.55.05-.82.1l-5.83,6.74c-.09.19-.17.29-.23.26l-12.09,26.93h0s0,0,0,0l-12.09,26.93,7.68,3.45c2.62,1.06,5.13,2.1,6.1,2.74l.06.03h0c.18.44-.17,1.04-.73,1.63l-10.98,24.45,206.55,92.71,66.96,20.9c3.87,1.74,13.58-9.57,15.65-12.97,3.7,4.41,24.49,4.89,25.31,6.28l17.88,8.03,15.5-34.54Z"/>
    <path class="st12" d="M1206.54,1251.15l15.02-33.45-106.51-168.12-12.09,26.93c-.07.16-3.18,1.35-3.34,1.27l-45.4-20.38-8.29,18.47-55.4-24.87-8.98,20.01-32.32-14.51c-1.6,2.41-6.05,15.08-6.9,15.4-1.49.57-19.1-11.02-21.05-6.68l-10.71,23.85-20.01-8.99c-6.04,13.37-12.5,26.56-16.41,40.72,8.73,7.82,11.71-3.75,17.4-3.01,13.32,1.73-4.72,18.01-5.16,25.15l29.24,13.12,14.51-32.32,27.7,12.43-14.51,32.32,133.89,60.1c.69.31,5.52-14.16,6.22-13.85l44.63,20.03,8.34-18.35c6.61-1.72,22.12,13.16,34.69,15.95l35.45,18.78Z"/>
    <path class="st12" d="M1211.96,1218.81c.16.07,1.35,3.18,1.27,3.34"/>
  </g>
  <rect class="st7" x="883.8" y="1206.04" width="149.39" height="32.23" transform="translate(576.6 -283.35) rotate(23.87)"/>
  <rect class="st7" x="935.28" y="1215.19" width="149.39" height="32.23" transform="translate(584.71 -303.4) rotate(23.87)"/>
  <rect class="st12" x="938.94" y="1156.61" width="149.39" height="63.63" transform="translate(567.67 -308.55) rotate(23.87)"/>
  <rect class="st12" x="995.46" y="1156.61" width="149.39" height="63.63" transform="translate(572.5 -331.42) rotate(23.87)"/>
  <rect class="st12" x="1052.44" y="1166.17" width="149.39" height="63.63" transform="translate(581.24 -353.66) rotate(23.87)"/>
</svg>